<?xml version="1.0" standalone="no"?>
<!DOCTYPE svg PUBLIC "-//W3C//DTD SVG 20010904//EN"
 "http://www.w3.org/TR/2001/REC-SVG-20010904/DTD/svg10.dtd">
<svg version="1.0" xmlns="http://www.w3.org/2000/svg"
 width="700.000000pt" height="700.000000pt" viewBox="0 0 700.000000 700.000000"
 preserveAspectRatio="xMidYMid meet">
<metadata>
Created by potrace 1.11, written by Peter Selinger 2001-2013
</metadata>
<g transform="translate(0.000000,700.000000) scale(0.100000,-0.100000)"
fill="#000000" stroke="none">
<path d="M6097 6975 c-7 -16 -67 -111 -170 -265 -286 -427 -551 -705 -832
-870 -128 -76 -263 -137 -496 -225 -112 -42 -224 -85 -249 -95 -25 -10 -104
-41 -177 -70 -73 -28 -172 -76 -222 -105 -389 -230 -740 -647 -909 -1080 -31
-79 -80 -250 -88 -306 -2 -16 -6 -44 -9 -61 -21 -120 -9 -346 25 -478 58 -234
211 -460 425 -630 40 -31 51 -36 57 -21 2 5 44 53 93 107 308 336 443 467 627
610 46 36 93 73 106 83 23 18 23 19 7 57 -25 58 -45 132 -52 199 -13 108 -6
320 12 415 3 14 10 52 16 85 6 33 24 112 40 175 43 167 153 486 134 390 -50
-256 -64 -672 -30 -900 5 -31 27 -156 30 -170 1 -3 5 -22 9 -43 5 -20 12 -40
17 -42 10 -7 337 228 474 340 112 92 287 263 280 274 -4 8 -8 24 -24 101 -10
47 -7 267 4 335 12 73 45 193 75 274 34 92 97 231 105 231 3 0 3 -17 -1 -37
-4 -21 -8 -47 -10 -58 -2 -11 -6 -31 -8 -45 -11 -58 -19 -151 -19 -235 -1 -95
10 -264 18 -287 2 -7 7 -26 9 -42 3 -16 7 -30 9 -32 4 -4 138 206 212 331 69
117 206 386 250 490 21 50 46 108 56 130 9 22 34 83 53 135 l37 95 -6 -80
c-12 -161 -31 -267 -81 -448 -63 -230 -155 -440 -282 -650 -40 -65 -72 -120
-72 -122 0 -2 10 -2 23 0 12 2 53 7 91 10 38 3 72 7 75 9 3 2 23 7 43 10 21 3
55 10 75 15 21 6 56 14 78 20 44 11 148 53 236 94 31 15 59 27 63 27 8 0 -109
-101 -165 -142 -189 -140 -441 -235 -633 -240 -31 -1 -56 -5 -56 -10 0 -8
-205 -217 -260 -263 -105 -90 -231 -192 -353 -285 -75 -58 -136 -108 -137
-111 0 -10 196 -44 310 -55 55 -5 350 -4 400 1 112 12 255 33 282 41 20 6 43
11 88 19 l35 6 -32 -15 c-132 -61 -500 -163 -658 -182 -22 -3 -48 -7 -59 -11
-33 -9 -278 -11 -344 -2 -98 14 -117 18 -154 34 l-36 14 -88 -75 c-49 -42
-116 -99 -149 -127 -120 -103 -581 -575 -593 -608 -7 -17 -25 -9 -66 30 -107
103 -136 124 -136 104 0 -5 -21 -30 -46 -58 -65 -72 -211 -267 -266 -355 -130
-209 -240 -485 -277 -695 -6 -33 -13 -70 -15 -82 -5 -23 -19 -149 -19 -170 -1
-28 -13 -10 -36 50 -36 93 -160 330 -225 432 -71 110 -169 244 -178 245 -4 0
-15 -23 -25 -51 l-19 -50 -54 73 c-30 40 -57 75 -61 78 -3 3 -29 32 -56 65
-66 79 -239 254 -333 335 -41 36 -77 68 -80 71 -18 21 -204 159 -300 224 -139
93 -142 96 -60 55 364 -182 676 -429 958 -759 l30 -34 8 34 c4 19 9 39 10 44
33 139 38 181 38 325 -1 125 -5 170 -22 233 -74 273 -265 475 -582 616 -80 36
-263 98 -314 107 -17 3 -56 11 -86 19 -63 16 -97 23 -160 31 -25 3 -52 7 -60
9 -8 3 -42 7 -75 11 -33 4 -73 8 -90 10 -157 17 -697 25 -711 11 -3 -3 39 -84
95 -181 91 -157 216 -397 269 -516 44 -100 101 -239 122 -300 101 -291 188
-444 349 -615 52 -55 176 -165 185 -165 3 0 27 -15 53 -34 85 -59 211 -110
324 -131 246 -44 457 75 580 328 13 26 25 47 28 47 11 0 100 -146 144 -235 76
-153 107 -232 188 -478 l78 -239 6 -167 c3 -91 8 -188 10 -216 2 -27 7 -77 10
-110 3 -33 12 -116 20 -185 9 -69 18 -145 21 -170 3 -25 8 -65 11 -90 3 -25 5
-52 5 -61 -1 -20 57 -41 124 -45 71 -4 125 31 155 99 20 47 20 52 5 86 -18 40
-44 150 -52 214 -3 23 -7 52 -9 63 -25 116 -25 652 -1 779 2 11 7 43 10 70 55
421 197 813 395 1085 47 65 144 178 158 184 7 3 52 -24 100 -60 243 -182 545
-318 796 -360 129 -21 336 -26 425 -10 17 3 47 8 65 11 57 10 180 47 257 77
292 116 595 362 830 674 33 43 63 84 68 89 86 113 228 387 309 595 89 228 178
562 198 745 3 28 8 57 10 65 7 24 19 135 31 300 14 181 8 541 -11 685 -2 17
-7 55 -10 85 -3 30 -8 62 -10 70 -2 8 -6 35 -9 60 -3 25 -8 56 -11 70 -88 456
-232 848 -430 1173 -33 54 -64 107 -70 118 -12 23 -31 25 -38 4z"/>
</g>
</svg>
